<svg xmlns="http://www.w3.org/2000/svg" viewBox="0 0 1280 720" role="img" aria-hidden="true">
  <defs>
    <style>
      .bg { fill: #f3f5fa; }
      .header { fill: #dbe7ff; }
      .card { fill: #ffffff; }
      .accent { fill: #2f5bea; }
      .muted { fill: #e5ebf5; }
      .chip { fill: #c9d6ff; }
      .placeholder { fill: none; stroke: #9aa9c8; stroke-width: 8; stroke-dasharray: 18 14; }
      .divider { stroke: #b9c4dd; stroke-width: 6; }
      .outline { fill: none; stroke: #94a3c7; stroke-width: 6; }
      .text-line { fill: #b1bed6; }
      .text-strong { fill: #7a8bb0; }
      .badge { fill: #2f5bea; opacity: 0.18; }
      .highlight { fill: #ffe7c2; }
    </style>
  </defs>
  <rect class="bg" x="0" y="0" width="1280" height="720"/>
  
      <rect class="header" x="120" y="80" width="1040" height="110" rx="32"/>
      <rect class="badge" x="980" y="96" width="140" height="78" rx="18"/>
      <rect class="card" x="120" y="210" width="620" height="160" rx="28"/>
      <rect class="card" x="120" y="390" width="620" height="250" rx="28"/>
      <rect class="card" x="760" y="210" width="400" height="430" rx="32"/>
      <rect class="muted" x="780" y="230" width="360" height="80" rx="18"/>
      <rect class="outline" x="780" y="330" width="360" height="260" rx="24" stroke-dasharray="22 16"/>
      <rect class="text-line" x="160" y="240" width="540" height="24" rx="12"/>
      <rect class="text-line" x="160" y="286" width="500" height="20" rx="10"/>
      <rect class="text-line" x="160" y="420" width="520" height="20" rx="10"/>
      <rect class="text-line" x="160" y="460" width="540" height="20" rx="10"/>
      <rect class="text-line" x="160" y="500" width="500" height="20" rx="10"/>
      <rect class="muted" x="160" y="560" width="560" height="48" rx="24"/>
    
</svg>
