<svg xmlns="http://www.w3.org/2000/svg" viewBox="0 0 1280 720" role="img" aria-hidden="true">
  <defs>
    <style>
      .bg { fill: #f3f5fa; }
      .header { fill: #dbe7ff; }
      .card { fill: #ffffff; }
      .accent { fill: #2f5bea; }
      .muted { fill: #e5ebf5; }
      .chip { fill: #c9d6ff; }
      .placeholder { fill: none; stroke: #9aa9c8; stroke-width: 8; stroke-dasharray: 18 14; }
      .divider { stroke: #b9c4dd; stroke-width: 6; }
      .outline { fill: none; stroke: #94a3c7; stroke-width: 6; }
      .text-line { fill: #b1bed6; }
      .text-strong { fill: #7a8bb0; }
      .badge { fill: #2f5bea; opacity: 0.18; }
      .highlight { fill: #ffe7c2; }
    </style>
  </defs>
  <rect class="bg" x="0" y="0" width="1280" height="720"/>
  
      <rect class="header" x="120" y="80" width="1040" height="110" rx="32"/>
      <rect class="highlight" x="160" y="110" width="620" height="40" rx="18"/>
      <rect class="card" x="120" y="210" width="640" height="430" rx="32"/>
      <rect class="muted" x="160" y="250" width="560" height="70" rx="20"/>
      <rect class="muted" x="160" y="340" width="560" height="70" rx="20"/>
      <rect class="card" x="800" y="210" width="360" height="430" rx="32"/>
      <rect class="text-line" x="820" y="250" width="320" height="24" rx="12"/>
      <rect class="text-line" x="820" y="296" width="320" height="24" rx="12"/>
      <rect class="text-line" x="820" y="342" width="320" height="24" rx="12"/>
      <rect class="text-line" x="820" y="388" width="320" height="24" rx="12"/>
      <rect class="text-line" x="820" y="434" width="320" height="24" rx="12"/>
      <rect class="text-line" x="820" y="480" width="320" height="24" rx="12"/>
    
</svg>
