<svg xmlns="http://www.w3.org/2000/svg" viewBox="0 0 1280 720" role="img" aria-hidden="true">
  <defs>
    <style>
      .bg { fill: #f3f5fa; }
      .header { fill: #dbe7ff; }
      .card { fill: #ffffff; }
      .accent { fill: #2f5bea; }
      .muted { fill: #e5ebf5; }
      .chip { fill: #c9d6ff; }
      .placeholder { fill: none; stroke: #9aa9c8; stroke-width: 8; stroke-dasharray: 18 14; }
      .divider { stroke: #b9c4dd; stroke-width: 6; }
      .outline { fill: none; stroke: #94a3c7; stroke-width: 6; }
      .text-line { fill: #b1bed6; }
      .text-strong { fill: #7a8bb0; }
      .badge { fill: #2f5bea; opacity: 0.18; }
      .highlight { fill: #ffe7c2; }
    </style>
  </defs>
  <rect class="bg" x="0" y="0" width="1280" height="720"/>
  
      <rect class="header" x="120" y="80" width="1040" height="110" rx="32"/>
      <rect class="card" x="120" y="210" width="460" height="430" rx="32"/>
      <rect class="card" x="600" y="210" width="560" height="430" rx="32"/>
      <rect class="muted" x="160" y="250" width="380" height="280" rx="24"/>
      <rect class="text-line" x="640" y="250" width="480" height="24" rx="12"/>
      <rect class="text-line" x="640" y="294" width="520" height="24" rx="12"/>
      <rect class="text-line" x="640" y="338" width="500" height="24" rx="12"/>
      <rect class="text-line" x="640" y="382" width="480" height="24" rx="12"/>
      <rect class="text-line" x="640" y="426" width="520" height="24" rx="12"/>
      <rect class="highlight" x="640" y="470" width="520" height="90" rx="24"/>
      <rect class="chip" x="640" y="580" width="240" height="36" rx="18"/>
      <rect class="chip" x="900" y="580" width="240" height="36" rx="18"/>
    
</svg>
